<svg width="234" height="243" viewBox="0 0 234 243" fill="none" xmlns="http://www.w3.org/2000/svg">
<path d="M226.75 176.167C224.011 165.948 223.46 155.326 224.433 144.79C224.731 141.56 224.883 138.289 224.883 134.979C224.883 91.4654 199.142 53.9581 162.062 36.886C152.432 32.4515 143.51 26.616 136.013 19.1196L116.922 0.0283203L97.8307 19.1196C90.3343 26.616 81.4116 32.4515 71.782 36.886C34.7025 53.9581 8.96116 91.4654 8.96116 134.979C8.96116 138.289 9.11647 141.56 9.41125 144.79C10.3812 155.326 9.83275 165.948 7.09093 176.17L0.0478516 202.457L26.2266 209.471C36.4648 212.216 45.9804 217.018 54.6337 223.145C72.232 235.609 93.7164 242.943 116.919 242.943C140.121 242.943 161.606 235.609 179.204 223.145C187.854 217.018 197.37 212.216 207.611 209.471L233.793 202.457L226.75 176.167ZM194.821 157.003C194.453 158.337 194.026 159.659 193.582 160.981C193.446 161.383 193.316 161.786 193.173 162.185C192.821 163.177 192.431 164.166 192.035 165.149C191.655 166.09 191.258 167.022 190.843 167.945C190.494 168.721 190.149 169.501 189.778 170.268C189.407 171.032 189.011 171.78 188.618 172.531C188.336 173.073 188.047 173.612 187.753 174.148C187.287 174.985 186.814 175.818 186.32 176.636C186.149 176.921 185.971 177.2 185.797 177.482C183.176 181.717 180.183 185.698 176.849 189.366C176.833 189.385 176.814 189.4 176.798 189.419C161.976 205.705 140.619 215.944 116.925 215.944C93.2314 215.944 71.8739 205.702 57.0522 189.419C57.0364 189.4 57.0205 189.381 57.0014 189.366C53.6669 185.698 50.6747 181.714 48.0533 177.482C47.879 177.2 47.7015 176.921 47.5304 176.636C47.0359 175.818 46.5636 174.985 46.0977 174.148C45.7997 173.612 45.5144 173.073 45.2323 172.531C44.8393 171.783 44.4431 171.032 44.0722 170.268C43.6982 169.498 43.3527 168.721 43.0072 167.945C42.5919 167.022 42.1957 166.09 41.8153 165.149C41.4191 164.163 41.0292 163.177 40.6774 162.185C40.5347 161.786 40.4048 161.383 40.2685 160.981C39.8247 159.659 39.3969 158.337 39.0323 157.003H39.0292C37.0417 149.994 35.9577 142.612 35.9577 134.976C35.9577 97.1899 62.0033 65.3754 97.0573 56.5034C103.4 54.8488 110.079 54.0056 116.928 54.0056C123.778 54.0056 130.457 54.8488 136.799 56.5034C171.853 65.3754 197.899 97.1899 197.899 134.976C197.893 142.612 196.805 149.994 194.821 157.003Z" fill="#E75225"/>
<g clip-path="url(#clip0_259_8026)">
<path d="M159.616 172.953C138.405 196.51 102.112 198.412 78.5542 177.201C54.9964 155.989 53.0944 119.696 74.3059 96.1386C95.5175 72.5808 131.81 70.6788 155.368 91.8904C178.926 113.102 180.828 149.395 159.616 172.953ZM93.9274 113.806C82.4731 126.527 83.5002 146.125 96.2214 157.579C108.943 169.034 128.541 168.007 139.995 155.285C151.449 142.564 150.422 122.966 137.701 111.512C124.98 100.058 105.382 101.085 93.9274 113.806Z" fill="#E75225"/>
<path opacity="0.4" d="M174.074 140.266C172.669 154.29 166.154 167.306 155.77 176.836C145.386 186.365 131.859 191.741 117.766 191.938L117.396 165.538C125.006 165.431 132.31 162.528 137.918 157.382C143.525 152.236 147.043 145.207 147.802 137.635L174.074 140.266Z" fill="white"/>
<path opacity="0.6" d="M117.769 191.938C103.271 192.142 89.2339 186.852 78.4769 177.131C67.7199 167.41 61.0403 153.978 59.7801 139.534L86.0834 137.24C86.7639 145.039 90.3709 152.292 96.1797 157.542C101.988 162.791 109.569 165.648 117.397 165.538L117.769 191.938Z" fill="white"/>
</g>
<defs>
<clipPath id="clip0_259_8026">
<rect width="116.76" height="116.76" fill="white" transform="translate(112.6 52.0537) rotate(42)"/>
</clipPath>
</defs>
</svg>
